<svg version="1.1" xmlns="http://www.w3.org/2000/svg" style="display: block;" viewBox="0 0 2048 2048" width="1024" height="1024" preserveAspectRatio="none">
<defs>
	<linearGradient id="Gradient1" gradientUnits="userSpaceOnUse" x1="940.832" y1="844.241" x2="938.035" y2="1144.67">
		<stop class="stop0" offset="0" stop-opacity="1" stop-color="rgb(255,88,99)"/>
		<stop class="stop1" offset="1" stop-opacity="1" stop-color="rgb(218,32,154)"/>
	</linearGradient>
	<linearGradient id="Gradient2" gradientUnits="userSpaceOnUse" x1="1311.5" y1="837.206" x2="1322.12" y2="1144.2">
		<stop class="stop0" offset="0" stop-opacity="1" stop-color="rgb(255,91,97)"/>
		<stop class="stop1" offset="1" stop-opacity="1" stop-color="rgb(214,35,152)"/>
	</linearGradient>
	<linearGradient id="Gradient3" gradientUnits="userSpaceOnUse" x1="1111.5" y1="431.862" x2="1105.82" y2="855.633">
		<stop class="stop0" offset="0" stop-opacity="1" stop-color="rgb(255,161,16)"/>
		<stop class="stop1" offset="1" stop-opacity="1" stop-color="rgb(250,106,86)"/>
	</linearGradient>
	<linearGradient id="Gradient4" gradientUnits="userSpaceOnUse" x1="1093.18" y1="1131.81" x2="1088.53" y2="1524.1">
		<stop class="stop0" offset="0" stop-opacity="1" stop-color="rgb(193,49,145)"/>
		<stop class="stop1" offset="1" stop-opacity="1" stop-color="rgb(83,45,162)"/>
	</linearGradient>
</defs>
<path transform="translate(0,0)" fill="url(#Gradient4)" d="M 1323.15 1123.97 C 1321.52 1126.99 1301.07 1147.07 1296.99 1151.17 L 1233 1215.51 L 1059.67 1391.76 C 1020.42 1431.88 980.88 1471.73 941.491 1511.71 C 938.692 1514.56 931.34 1520.62 927.749 1522.05 C 902.94 1531.91 875.172 1511.66 883.544 1484.45 C 888.769 1466.56 894.845 1450.18 900.79 1433 L 934.732 1334.19 L 984.719 1189.95 C 993.224 1165.17 1004.58 1127.87 1014.35 1104.57 C 1014.79 1116.43 1004.63 1130.59 1003.66 1141.48 C 1006.36 1141.14 1007.44 1139.63 1009.47 1137.72 C 1012.07 1137.18 1012.56 1137.22 1015.04 1137.85 C 1032.59 1142.3 1052.86 1136.67 1070.81 1138.69 C 1072.55 1138.89 1080.25 1144.93 1082.56 1146.54 C 1082.98 1142.91 1088.65 1127.85 1091.56 1126.04 C 1088.43 1137.35 1081.75 1154.2 1077.64 1165.57 L 1046.06 1250.28 C 1037.81 1272 1022.52 1316.68 1012.45 1336.03 C 1054.64 1289.57 1097.09 1243.35 1139.82 1197.39 C 1152.13 1184.02 1164.3 1170.47 1176.64 1157.14 C 1178.99 1154.61 1188.49 1144.26 1190.8 1142.57 L 1192.05 1144.5 C 1195.55 1144.35 1195.87 1142.92 1199.31 1139.95 C 1206.04 1138.47 1217.65 1139.39 1225.31 1138.84 C 1243.86 1137.49 1263.83 1134.72 1282.33 1135.16 C 1286.45 1135.26 1294.12 1138.19 1298.3 1139.72 C 1298.28 1141.42 1298.05 1142.97 1297.67 1144.62 L 1299.41 1145.21 C 1303.15 1143.16 1317.34 1127.66 1320.66 1123.8 L 1323.15 1123.97 z"/>
<path transform="translate(0,0)" fill="url(#Gradient3)" d="M 938.536 812.059 C 943.938 803.515 966.229 777.309 973.405 768.483 L 1053.05 670.968 L 1175.98 519.692 C 1197.57 493.259 1219.45 465.343 1242.48 440.133 C 1247.22 434.943 1260.8 432.389 1267.52 432.576 C 1300.06 434.627 1306.76 460.958 1298.43 487.549 C 1288.86 518.134 1279.8 547.876 1270.62 578.008 C 1252.34 639.828 1233.51 701.484 1214.13 762.967 C 1208.12 782.577 1202.24 802.223 1196.48 821.907 C 1195.45 825.357 1189.63 845.312 1188.3 847.642 L 1184.16 862.548 C 1179.6 848.71 1180.19 853.791 1169.39 848.621 L 1168.12 848 C 1161.72 843.444 1161.47 843.989 1156.16 848.107 L 1154.75 847.772 C 1147.52 844.143 1128.16 845.808 1121.33 849.292 C 1121.1 848.852 1117.67 842.876 1117.76 843.434 C 1116.57 836.09 1121.52 830.288 1120.58 821.92 C 1137.52 766.183 1155.05 710.63 1173.18 655.268 C 1179.94 634.271 1187.62 614.514 1193.6 593.095 C 1180.1 608.283 1161.24 634.959 1147.73 652.187 L 1031.83 801.237 C 1027.88 806.304 1000.89 842.097 997.762 844.118 C 991.938 853.845 974.938 874.291 967.372 883.65 C 967.53 878.512 975.229 871.502 973.242 867.973 C 965.272 853.818 940.187 858.587 927.939 855.884 C 923.852 854.982 920.656 848.131 915.797 845.036 L 913.251 845.634 C 910.306 849.432 909.638 850.923 905.298 852.912 C 908.949 846.911 933.605 817.161 938.536 812.059 z"/>
<path transform="translate(0,0)" fill="rgb(247,93,97)" d="M 905.298 852.912 C 908.949 846.911 933.605 817.161 938.536 812.059 C 936.977 818.318 923.325 833.992 918.84 839.058 C 921.075 841.386 927.273 840.52 932.844 843.124 C 936.801 841.85 934.674 840.87 936.233 840.68 C 940.156 840.2 943.664 844.593 947.423 844.343 L 947.924 840.888 C 950.485 840.292 962.641 844.677 966.149 845.759 C 969.746 842.498 968.73 842.311 972.287 842.402 C 979.026 846.548 978.385 853.465 985.588 854.105 C 992.006 851.436 992.031 846.138 997.762 844.118 C 991.938 853.845 974.938 874.291 967.372 883.65 C 967.53 878.512 975.229 871.502 973.242 867.973 C 965.272 853.818 940.187 858.587 927.939 855.884 C 923.852 854.982 920.656 848.131 915.797 845.036 L 913.251 845.634 C 910.306 849.432 909.638 850.923 905.298 852.912 z"/>
<path transform="translate(0,0)" fill="rgb(247,93,97)" d="M 1168.12 848 L 1167.81 844.794 L 1169.13 844.039 C 1174.36 846.584 1179.67 849.398 1185.22 851.055 C 1187.31 849.319 1186.72 849.885 1188.3 847.642 L 1184.16 862.548 C 1179.6 848.71 1180.19 853.791 1169.39 848.621 L 1168.12 848 z"/>
<path transform="translate(0,0)" fill="url(#Gradient2)" d="M 1120.58 821.92 C 1121.52 830.288 1116.57 836.09 1117.76 843.434 C 1117.67 842.876 1121.1 848.852 1121.33 849.292 C 1128.16 845.808 1147.52 844.143 1154.75 847.772 L 1156.16 848.107 C 1161.47 843.989 1161.72 843.444 1168.12 848 L 1169.39 848.621 C 1180.19 853.791 1179.6 848.71 1184.16 862.548 L 1183.12 867.139 L 1184.3 868.773 C 1191.07 869.393 1201.97 868.992 1209.21 869.011 L 1256.99 869.277 C 1312.3 870.3 1367.6 870.887 1422.92 871.04 C 1437.13 871.083 1451.42 870.955 1465.57 871.07 C 1477.25 871.165 1491.1 870.346 1502.49 872.24 C 1518.58 874.916 1530.07 890.581 1527.98 906.821 C 1526.2 920.617 1516.17 929.253 1506.98 938.723 C 1496.45 949.337 1485.9 959.817 1475.36 970.357 L 1400.02 1046.34 C 1384.71 1061.6 1369.51 1076.97 1354.41 1092.45 C 1346.91 1100.24 1330.73 1117.98 1323.15 1123.97 L 1320.66 1123.8 C 1317.34 1127.66 1303.15 1143.16 1299.41 1145.21 L 1297.67 1144.62 C 1298.05 1142.97 1298.28 1141.42 1298.3 1139.72 C 1294.12 1138.19 1286.45 1135.26 1282.33 1135.16 C 1263.83 1134.72 1243.86 1137.49 1225.31 1138.84 C 1217.65 1139.39 1206.04 1138.47 1199.31 1139.95 C 1195.87 1142.92 1195.55 1144.35 1192.05 1144.5 L 1190.8 1142.57 C 1197.16 1134.14 1216.89 1114.6 1225.47 1105.09 C 1261.02 1066.24 1296.87 1027.66 1333.02 989.358 C 1347.77 973.555 1366.01 956.042 1379.52 939.483 C 1354.98 940.279 1315.62 937.961 1289.97 937.479 C 1256.31 937.092 1222.64 936.38 1188.99 935.345 C 1161.16 934.731 1118.48 941.032 1104.62 910.285 C 1094.19 887.14 1112.59 846.073 1120.58 821.92 z"/>
<path transform="translate(0,0)" fill="rgb(247,93,97)" d="M 1121.33 849.292 C 1128.16 845.808 1147.52 844.143 1154.75 847.772 C 1152.19 850.519 1126.81 853.595 1121.33 849.292 z"/>
<path transform="translate(0,0)" fill="rgb(247,93,97)" d="M 1156.16 848.107 C 1161.47 843.989 1161.72 843.444 1168.12 848 L 1166.91 850.24 C 1163.13 851.224 1159.4 850.199 1156.16 848.107 z"/>
<path transform="translate(0,0)" fill="url(#Gradient1)" d="M 905.298 852.912 C 909.638 850.923 910.306 849.432 913.251 845.634 L 915.797 845.036 C 920.656 848.131 923.852 854.982 927.939 855.884 C 940.187 858.587 965.272 853.818 973.242 867.973 C 975.229 871.502 967.53 878.512 967.372 883.65 C 936.638 926.335 898.654 969.777 866.981 1012.66 L 1018.13 1012.53 C 1031.97 1012.53 1045.98 1012.53 1059.85 1012.51 C 1076.49 1012.49 1094.71 1010.21 1107.71 1022.75 C 1129.34 1043.63 1101.4 1100.74 1091.56 1126.04 C 1088.65 1127.85 1082.98 1142.91 1082.56 1146.54 C 1080.25 1144.93 1072.55 1138.89 1070.81 1138.69 C 1052.86 1136.67 1032.59 1142.3 1015.04 1137.85 C 1012.56 1137.22 1012.07 1137.18 1009.47 1137.72 C 1007.44 1139.63 1006.36 1141.14 1003.66 1141.48 C 1004.63 1130.59 1014.79 1116.43 1014.35 1104.57 C 1014.87 1101.18 1022.23 1081.3 1023.82 1076.82 C 945.699 1073.59 865.962 1078.93 787.764 1075.36 C 782.577 1075.12 773.984 1069.49 770.371 1065.87 C 764.038 1059.6 760.62 1050.97 760.948 1042.07 C 761.44 1024.61 781.882 1004.73 792.902 991.343 L 837.452 936.243 L 881.986 881.374 C 886.883 875.287 900.332 857.716 905.298 852.912 z"/>
<path transform="translate(0,0)" fill="rgb(243,49,134)" d="M 486.349 976.497 C 497.697 975.678 513.382 976.048 524.893 976.039 L 590.275 976.02 L 643.109 976.007 C 656.965 975.97 680.835 974.046 692.654 981.563 C 719.348 998.543 711.476 1042.18 679.751 1047.34 C 626.817 1050.54 569.264 1045.5 515.953 1047.77 C 506.335 1048.18 485.584 1048.37 477.454 1044.36 C 468.802 1040.13 462.223 1032.59 459.206 1023.44 C 451.918 1001.7 465.348 982.586 486.349 976.497 z"/>
<path transform="translate(0,0)" fill="rgb(247,93,97)" d="M 617.834 827.129 C 653.796 825.324 693.218 827.876 729.633 826.913 C 746.387 826.47 801.258 825.122 812.709 830.598 C 821.325 834.821 827.83 842.396 830.701 851.552 C 837.941 874.31 824.988 892.802 802.914 898.889 L 684.434 899.048 C 663.842 899.058 643.203 899.283 622.628 898.721 C 606.735 898.287 592.932 888.385 588.582 872.861 C 586.044 863.575 587.341 853.658 592.183 845.338 C 598.271 834.889 606.657 830.084 617.834 827.129 z"/>
<path transform="translate(0,0)" fill="rgb(189,48,146)" d="M 639.598 1111.43 C 639.992 1111.39 640.386 1111.35 640.781 1111.31 C 692.33 1111.28 743.887 1111.12 795.436 1111.1 C 800.882 1111.1 807.188 1111.11 812.488 1112.04 C 817.473 1112.91 823.988 1117 827.793 1120.24 C 842.69 1132.92 844.266 1157.8 830.133 1171.64 C 821.599 1180.11 814.164 1182.67 802.25 1182.97 C 763.129 1182.57 724.006 1182.42 684.883 1182.52 C 672.485 1182.54 660.061 1182.77 647.677 1182.82 C 635.491 1182.87 624.272 1183.9 614.159 1175.74 C 597.005 1161.89 594.755 1139.73 609.369 1123.22 C 618.279 1113.15 627.052 1112.14 639.598 1111.43 z"/>
</svg>